<svg xmlns="http://www.w3.org/2000/svg" version="1.1" xmlns:xlink="http://www.w3.org/1999/xlink" xmlns:svgjs="http://svgjs.dev/svgjs" width="28.8" height="28.8"><svg xmlns="http://www.w3.org/2000/svg" fill="none" stroke="#000" viewBox="-2.4 -2.4 28.8 28.8"><path fill="#0C121E" stroke="none" stroke-width="0" d="M14.099-1.806a4.05 4.05 0 0 0-4.198 0L.451 3.922A4.05 4.05 0 0 0-1.5 7.385v9.23a4.05 4.05 0 0 0 1.951 3.463l9.45 5.728a4.05 4.05 0 0 0 4.198 0l9.45-5.728a4.05 4.05 0 0 0 1.951-3.463v-9.23a4.05 4.05 0 0 0-1.951-3.463z"></path><path stroke="#eee" stroke-linecap="round" stroke-linejoin="round" stroke-width="2" d="M13.143 21a8.24 8.24 0 0 1-3.89-7.003 2.749 2.749 0 1 1 5.496 0 2.749 2.749 0 1 0 5.497 0 8.246 8.246 0 0 0-8.244-8.248 8.246 8.246 0 0 0-8.244 8.248c0 1.015.113 2.004.322 2.957m4.41 3.345a10.94 10.94 0 0 1-1.986-6.302 5.497 5.497 0 1 1 10.99 0m.299 5.484c-.1.005-.196.014-.296.014A5.497 5.497 0 0 1 12 13.997m7.672-7.52A10.2 10.2 0 0 0 12 3a10.2 10.2 0 0 0-7.673 3.477"></path></svg><style>@media (prefers-color-scheme: light) { :root { filter: none; } }
@media (prefers-color-scheme: dark) { :root { filter: none; } }
</style></svg>